<?xml version="1.0" encoding="UTF-8"?>
<svg width="296px" height="89px" viewBox="0 0 296 89" version="1.1" xmlns="http://www.w3.org/2000/svg" xmlns:xlink="http://www.w3.org/1999/xlink">
    <!-- Generator: Sketch 59 (86127) - https://sketch.com -->
    <title>Group 15</title>
    <desc>Created with Sketch.</desc>
    <defs>
        <path d="M31.0037467,15.4924314 L31.0037467,58.4084314 C31.0037467,59.5130009 30.1083162,60.4084314 29.0037467,60.4084314 L24.0357467,60.4084314 C22.9311772,60.4084314 22.0357467,59.5130009 22.0357467,58.4084314 L22.0357467,15.4924314 L22.0357467,15.4924314 L7.92374667,15.4924314 C6.81917717,15.4924314 5.92374667,14.5970009 5.92374667,13.4924314 L5.92374667,9.28443139 C5.92374667,8.17986189 6.81917717,7.28443139 7.92374667,7.28443139 L42.1671976,7.28443139 C43.2717671,7.28443139 44.1671976,8.17986189 44.1671976,9.28443139 L44.1671976,13.3157844 C44.1671976,14.4080334 43.290909,15.2982779 42.1987963,15.3155347 L31.0037467,15.4924314 L31.0037467,15.4924314 Z M56.4357467,59.2844314 L51.9237467,59.2844314 C50.8191772,59.2844314 49.9237467,58.3890009 49.9237467,57.2844314 L49.9237467,25.2844314 C49.9237467,24.1798619 50.8191772,23.2844314 51.9237467,23.2844314 L56.4357467,23.2844314 C57.5403162,23.2844314 58.4357467,24.1798619 58.4357467,25.2844314 L58.4357467,57.2844314 C58.4357467,58.3890009 57.5403162,59.2844314 56.4357467,59.2844314 Z M50.5197467,15.4804314 C49.4557413,14.4164261 48.9237467,13.1497721 48.9237467,11.6804314 C48.9237467,10.2110907 49.4557413,8.94443671 50.5197467,7.88043139 C51.583752,6.81642607 52.850406,6.28443139 54.3197467,6.28443139 C55.7890873,6.28443139 57.0557413,6.81642607 58.1197467,7.88043139 C59.183752,8.94443671 59.7157467,10.2110907 59.7157467,11.6804314 C59.7157467,13.1497721 59.183752,14.4164261 58.1197467,15.4804314 C57.0557413,16.5444367 55.7890873,17.0764314 54.3197467,17.0764314 C52.850406,17.0764314 51.583752,16.5444367 50.5197467,15.4804314 Z M90.1699396,58.9903824 L89.1420208,59.0592272 C82.0150816,59.0592272 76.0303699,56.6841051 71.1877061,51.9337896 C66.3450422,47.1834742 63.9237467,41.2628799 63.9237467,34.1718293 C63.9237467,27.0807787 66.3450422,21.1601844 71.1877061,16.409869 C76.0303699,11.6595535 82.0150816,9.28443139 89.1420208,9.28443139 C96.26896,9.28443139 102.253672,11.6595535 107.096335,16.409869 C111.938999,21.1601844 114.360295,27.0693046 114.360295,34.1374069 C114.360295,39.5073287 112.921223,44.269047 110.043036,48.4227044 C107.164849,52.5763619 103.327324,55.5710811 98.5303457,57.4069518 C100.083653,59.4723064 102.0481,60.5049681 104.423747,60.5049681 C106.159796,60.5049681 107.861556,60.0460074 109.529077,59.128072 C110.410955,58.7054221 111.223292,58.1017562 111.966086,57.3170745 C112.649498,56.5951287 113.788765,56.5638872 114.510712,57.2472965 C114.593867,57.3260125 114.669321,57.4124834 114.736049,57.5055337 L116.999254,60.6615247 C117.538568,61.413592 117.419715,62.4520618 116.724423,63.0628262 C112.761584,66.5438963 108.615673,68.2844314 104.286691,68.2844314 C101.362818,68.2844314 98.5532018,67.458302 95.8577568,65.8060183 C93.1623119,64.1537347 91.2663917,61.8818788 90.1699396,58.9903824 Z M100.968281,21.6849127 C97.710505,18.2792415 93.6957003,16.5764314 88.9237467,16.5764314 C84.151793,16.5764314 80.1255175,18.2792415 76.8447993,21.6849127 C73.5640811,25.0905839 71.9237467,29.2210488 71.9237467,34.0764314 C71.9237467,38.931814 73.5640811,43.0622789 76.8447993,46.4679501 C80.1255175,49.8736213 84.151793,51.5764314 88.9237467,51.5764314 C93.6957003,51.5764314 97.7219759,49.8736213 101.002694,46.4679501 C104.283412,43.0622789 105.923747,38.931814 105.923747,34.0764314 C105.923747,29.2210488 104.271941,25.0905839 100.968281,21.6849127 Z M149.834587,40.6010823 L149.834587,20.7130823 C149.834587,19.6085128 150.730017,18.7130823 151.834587,18.7130823 L156.346587,18.7130823 C157.451156,18.7130823 158.346587,19.6085128 158.346587,20.7130823 L158.346587,57.1450823 C158.346587,58.2496518 157.451156,59.1450823 156.346587,59.1450823 L151.834587,59.1450823 C150.730017,59.1450823 149.834587,58.2496518 149.834587,57.1450823 L149.834587,51.7730823 L149.834587,51.7730823 C148.46658,54.2557614 146.579266,56.2064085 144.172587,57.6250823 C141.765908,59.0437561 139.169267,59.7530823 136.382587,59.7530823 C131.822564,59.7530823 128.136601,58.3597629 125.324587,55.5730823 C122.512573,52.7864017 121.106587,48.758442 121.106587,43.4890823 L121.106587,20.7130823 C121.106587,19.6085128 122.002017,18.7130823 123.106587,18.7130823 L127.618587,18.7130823 C128.723156,18.7130823 129.618587,19.6085128 129.618587,20.7130823 L129.618587,40.9050823 L129.618587,40.9050823 C129.618587,48.3531195 132.709223,52.0770823 138.890587,52.0770823 C141.829268,52.0770823 144.387909,51.1017587 146.566587,49.1510823 C148.745264,47.2004059 149.834587,44.3504344 149.834587,40.6010823 Z M203.061664,42.6530823 L173.369664,42.6530823 L173.369664,42.6530823 C173.572332,45.5917637 174.914985,47.9604066 177.397664,49.7590823 C179.880343,51.557758 182.717648,52.4570823 185.909664,52.4570823 C190.030207,52.4570823 193.148337,51.6131018 195.264055,49.9251409 C196.030484,49.3136727 197.127169,49.3479604 197.853901,50.0061141 L199.866645,51.8289236 C200.685384,52.570381 200.748015,53.8351709 200.006547,54.6538996 C199.936801,54.7309125 199.86116,54.8023734 199.780311,54.8676333 C195.745333,58.1245993 190.919117,59.7530823 185.301664,59.7530823 C179.626969,59.7530823 174.801017,57.8657678 170.823664,54.0910823 C166.846311,50.3163968 164.857664,45.2497808 164.857664,38.8910823 C164.857664,32.5323838 166.88431,27.4784344 170.937664,23.7290823 C174.991017,19.9797302 179.766303,18.1050823 185.263664,18.1050823 C190.761025,18.1050823 195.434978,19.764399 199.285664,23.0830823 C203.13635,26.4017656 205.061664,30.9743865 205.061664,36.8010823 L205.061664,40.6530823 C205.061664,41.7576518 204.166233,42.6530823 203.061664,42.6530823 Z M173.369664,35.9650823 L196.549664,35.9650823 C196.549664,32.5703987 195.485674,29.9610914 193.357664,28.1370823 C191.229653,26.3130732 188.607679,25.4010823 185.491664,25.4010823 C182.375648,25.4010823 179.576343,26.3510728 177.093664,28.2510823 C174.610985,30.1510918 173.369664,32.7223994 173.369664,35.9650823 Z M243.996741,47.0610823 C243.996741,50.9117682 242.603421,53.9897374 239.816741,56.2950823 C237.03006,58.6004272 233.458096,59.7530823 229.100741,59.7530823 C226.162059,59.7530823 223.109423,59.2210876 219.942741,58.1570823 C217.628197,57.4069627 215.355055,56.2862471 213.123315,54.7949358 C212.226648,54.195769 211.9665,52.9935815 212.535224,52.077304 L214.492309,48.9242228 C215.074809,47.9857199 216.307829,47.6971406 217.246323,48.2796543 C217.277959,48.29929 217.30904,48.3198053 217.33953,48.3411762 C221.182032,51.0344469 225.178436,52.3810823 229.328741,52.3810823 C231.254084,52.3810823 232.774069,51.9377534 233.888741,51.0510823 C235.003413,50.1644112 235.560741,49.0370891 235.560741,47.6690823 C235.560741,45.6424055 232.875434,43.8184237 227.504741,42.1970823 C227.099405,42.0450815 226.795409,41.9437492 226.592741,41.8930823 C218.182032,39.6130709 213.976741,35.8131089 213.976741,30.4930823 C213.976741,26.7437302 215.433393,23.7417602 218.346741,21.4870823 C221.260089,19.2324044 223.856741,18.1050823 229.708741,18.1050823 C233.134612,18.1050823 236.951179,19.15996 241.158442,21.2697155 C242.145816,21.7648483 242.544865,22.9666551 242.049739,23.9540329 C242.04865,23.9562044 242.047557,23.9583739 242.04646,23.9605414 L240.711279,26.5991134 C240.212556,27.5846822 239.009299,27.9793503 238.02373,27.4806282 C238.010766,27.4740684 237.997874,27.4673675 237.985057,27.4605267 C235.222687,25.9862304 232.235915,25.2490823 229.024741,25.2490823 C226.998064,25.2490823 225.351414,25.616412 224.084741,26.3510823 C222.818068,27.0857526 222.184741,28.1877416 222.184741,29.6570823 C222.184741,30.9744222 222.843401,31.9370793 224.160741,32.5450823 C225.072745,33.0010846 226.352066,33.4317469 227.998741,33.8370823 C229.645416,34.2424177 231.102068,34.6477469 232.368741,35.0530823 C233.635414,35.4584177 234.864068,35.9144131 236.054741,36.4210823 C237.245413,36.9277515 238.524734,37.6370777 239.892741,38.5490823 C242.628755,40.3730914 243.996741,43.2103964 243.996741,47.0610823 Z M260.919818,25.5530823 L260.919818,46.0730823 C260.919818,47.9984253 261.426479,49.5310766 262.439818,50.6710823 C263.453156,51.811088 264.871809,52.3810823 266.695818,52.3810823 C267.587049,52.3810823 268.76405,51.904794 270.226821,50.9522175 C271.152428,50.3494677 272.391409,50.611178 272.994172,51.5367765 C273.012341,51.5646774 273.029811,51.5930276 273.046565,51.6218007 L274.523791,54.1587759 C275.053237,55.0680312 274.787647,56.232019 273.916203,56.821633 C270.759863,58.9571964 267.960401,59.9343462 265.517818,59.7530823 C261.276253,59.4383161 258.804497,58.4990948 256.245818,55.9910823 C253.687138,53.4830698 252.407818,50.1011036 252.407818,45.8450823 L252.407818,25.5530823 L249.315818,25.5530823 C248.211248,25.5530823 247.315818,24.6576518 247.315818,23.5530823 L247.315818,20.7130823 C247.315818,19.6085128 248.211248,18.7130823 249.315818,18.7130823 L252.407818,18.7130823 L252.407818,18.7130823 L252.407818,8.0210823 C252.407818,6.9165128 253.303248,6.0210823 254.407818,6.0210823 L258.919818,6.0210823 C260.024387,6.0210823 260.919818,6.9165128 260.919818,8.0210823 L260.919818,18.7130823 L260.919818,18.7130823 L269.559818,18.7130823 C270.664387,18.7130823 271.559818,19.6085128 271.559818,20.7130823 L271.559818,23.5530823 C271.559818,24.6576518 270.664387,25.5530823 269.559818,25.5530823 L260.919818,25.5530823 L260.919818,25.5530823 Z" id="path-1"></path>
        <filter x="-8.2%" y="-32.1%" width="116.4%" height="170.7%" filterUnits="objectBoundingBox" id="filter-2">
            <feOffset dx="0" dy="2" in="SourceAlpha" result="shadowOffsetOuter1"></feOffset>
            <feGaussianBlur stdDeviation="7" in="shadowOffsetOuter1" result="shadowBlurOuter1"></feGaussianBlur>
            <feColorMatrix values="0 0 0 0 0   0 0 0 0 0   0 0 0 0 0  0 0 0 0.0817307692 0" type="matrix" in="shadowBlurOuter1"></feColorMatrix>
        </filter>
        <linearGradient x1="0%" y1="47.3484108%" x2="100%" y2="52.7628871%" id="linearGradient-3">
            <stop stop-color="#3987E7" offset="0%"></stop>
            <stop stop-color="#8000FF" offset="100%"></stop>
        </linearGradient>
        <path d="M31.0037467,15.4924314 L31.0037467,58.4084314 C31.0037467,59.5130009 30.1083162,60.4084314 29.0037467,60.4084314 L24.0357467,60.4084314 C22.9311772,60.4084314 22.0357467,59.5130009 22.0357467,58.4084314 L22.0357467,15.4924314 L22.0357467,15.4924314 L7.92374667,15.4924314 C6.81917717,15.4924314 5.92374667,14.5970009 5.92374667,13.4924314 L5.92374667,9.28443139 C5.92374667,8.17986189 6.81917717,7.28443139 7.92374667,7.28443139 L42.1671976,7.28443139 C43.2717671,7.28443139 44.1671976,8.17986189 44.1671976,9.28443139 L44.1671976,13.3157844 C44.1671976,14.4080334 43.290909,15.2982779 42.1987963,15.3155347 L31.0037467,15.4924314 L31.0037467,15.4924314 Z M56.4357467,59.2844314 L51.9237467,59.2844314 C50.8191772,59.2844314 49.9237467,58.3890009 49.9237467,57.2844314 L49.9237467,25.2844314 C49.9237467,24.1798619 50.8191772,23.2844314 51.9237467,23.2844314 L56.4357467,23.2844314 C57.5403162,23.2844314 58.4357467,24.1798619 58.4357467,25.2844314 L58.4357467,57.2844314 C58.4357467,58.3890009 57.5403162,59.2844314 56.4357467,59.2844314 Z M50.5197467,15.4804314 C49.4557413,14.4164261 48.9237467,13.1497721 48.9237467,11.6804314 C48.9237467,10.2110907 49.4557413,8.94443671 50.5197467,7.88043139 C51.583752,6.81642607 52.850406,6.28443139 54.3197467,6.28443139 C55.7890873,6.28443139 57.0557413,6.81642607 58.1197467,7.88043139 C59.183752,8.94443671 59.7157467,10.2110907 59.7157467,11.6804314 C59.7157467,13.1497721 59.183752,14.4164261 58.1197467,15.4804314 C57.0557413,16.5444367 55.7890873,17.0764314 54.3197467,17.0764314 C52.850406,17.0764314 51.583752,16.5444367 50.5197467,15.4804314 Z M90.1699396,58.9903824 L89.1420208,59.0592272 C82.0150816,59.0592272 76.0303699,56.6841051 71.1877061,51.9337896 C66.3450422,47.1834742 63.9237467,41.2628799 63.9237467,34.1718293 C63.9237467,27.0807787 66.3450422,21.1601844 71.1877061,16.409869 C76.0303699,11.6595535 82.0150816,9.28443139 89.1420208,9.28443139 C96.26896,9.28443139 102.253672,11.6595535 107.096335,16.409869 C111.938999,21.1601844 114.360295,27.0693046 114.360295,34.1374069 C114.360295,39.5073287 112.921223,44.269047 110.043036,48.4227044 C107.164849,52.5763619 103.327324,55.5710811 98.5303457,57.4069518 C100.083653,59.4723064 102.0481,60.5049681 104.423747,60.5049681 C106.159796,60.5049681 107.861556,60.0460074 109.529077,59.128072 C110.410955,58.7054221 111.223292,58.1017562 111.966086,57.3170745 C112.649498,56.5951287 113.788765,56.5638872 114.510712,57.2472965 C114.593867,57.3260125 114.669321,57.4124834 114.736049,57.5055337 L116.999254,60.6615247 C117.538568,61.413592 117.419715,62.4520618 116.724423,63.0628262 C112.761584,66.5438963 108.615673,68.2844314 104.286691,68.2844314 C101.362818,68.2844314 98.5532018,67.458302 95.8577568,65.8060183 C93.1623119,64.1537347 91.2663917,61.8818788 90.1699396,58.9903824 Z M100.968281,21.6849127 C97.710505,18.2792415 93.6957003,16.5764314 88.9237467,16.5764314 C84.151793,16.5764314 80.1255175,18.2792415 76.8447993,21.6849127 C73.5640811,25.0905839 71.9237467,29.2210488 71.9237467,34.0764314 C71.9237467,38.931814 73.5640811,43.0622789 76.8447993,46.4679501 C80.1255175,49.8736213 84.151793,51.5764314 88.9237467,51.5764314 C93.6957003,51.5764314 97.7219759,49.8736213 101.002694,46.4679501 C104.283412,43.0622789 105.923747,38.931814 105.923747,34.0764314 C105.923747,29.2210488 104.271941,25.0905839 100.968281,21.6849127 Z M149.834587,40.6010823 L149.834587,20.7130823 C149.834587,19.6085128 150.730017,18.7130823 151.834587,18.7130823 L156.346587,18.7130823 C157.451156,18.7130823 158.346587,19.6085128 158.346587,20.7130823 L158.346587,57.1450823 C158.346587,58.2496518 157.451156,59.1450823 156.346587,59.1450823 L151.834587,59.1450823 C150.730017,59.1450823 149.834587,58.2496518 149.834587,57.1450823 L149.834587,51.7730823 L149.834587,51.7730823 C148.46658,54.2557614 146.579266,56.2064085 144.172587,57.6250823 C141.765908,59.0437561 139.169267,59.7530823 136.382587,59.7530823 C131.822564,59.7530823 128.136601,58.3597629 125.324587,55.5730823 C122.512573,52.7864017 121.106587,48.758442 121.106587,43.4890823 L121.106587,20.7130823 C121.106587,19.6085128 122.002017,18.7130823 123.106587,18.7130823 L127.618587,18.7130823 C128.723156,18.7130823 129.618587,19.6085128 129.618587,20.7130823 L129.618587,40.9050823 L129.618587,40.9050823 C129.618587,48.3531195 132.709223,52.0770823 138.890587,52.0770823 C141.829268,52.0770823 144.387909,51.1017587 146.566587,49.1510823 C148.745264,47.2004059 149.834587,44.3504344 149.834587,40.6010823 Z M203.061664,42.6530823 L173.369664,42.6530823 L173.369664,42.6530823 C173.572332,45.5917637 174.914985,47.9604066 177.397664,49.7590823 C179.880343,51.557758 182.717648,52.4570823 185.909664,52.4570823 C190.030207,52.4570823 193.148337,51.6131018 195.264055,49.9251409 C196.030484,49.3136727 197.127169,49.3479604 197.853901,50.0061141 L199.866645,51.8289236 C200.685384,52.570381 200.748015,53.8351709 200.006547,54.6538996 C199.936801,54.7309125 199.86116,54.8023734 199.780311,54.8676333 C195.745333,58.1245993 190.919117,59.7530823 185.301664,59.7530823 C179.626969,59.7530823 174.801017,57.8657678 170.823664,54.0910823 C166.846311,50.3163968 164.857664,45.2497808 164.857664,38.8910823 C164.857664,32.5323838 166.88431,27.4784344 170.937664,23.7290823 C174.991017,19.9797302 179.766303,18.1050823 185.263664,18.1050823 C190.761025,18.1050823 195.434978,19.764399 199.285664,23.0830823 C203.13635,26.4017656 205.061664,30.9743865 205.061664,36.8010823 L205.061664,40.6530823 C205.061664,41.7576518 204.166233,42.6530823 203.061664,42.6530823 Z M173.369664,35.9650823 L196.549664,35.9650823 C196.549664,32.5703987 195.485674,29.9610914 193.357664,28.1370823 C191.229653,26.3130732 188.607679,25.4010823 185.491664,25.4010823 C182.375648,25.4010823 179.576343,26.3510728 177.093664,28.2510823 C174.610985,30.1510918 173.369664,32.7223994 173.369664,35.9650823 Z M240.996741,47.0610823 C240.996741,50.9117682 239.603421,53.9897374 236.816741,56.2950823 C234.03006,58.6004272 230.458096,59.7530823 226.100741,59.7530823 C223.162059,59.7530823 220.109423,59.2210876 216.942741,58.1570823 C214.628197,57.4069627 212.355055,56.2862471 210.123315,54.7949358 C209.226648,54.195769 208.9665,52.9935815 209.535224,52.077304 L211.492309,48.9242228 C212.074809,47.9857199 213.307829,47.6971406 214.246323,48.2796543 C214.277959,48.29929 214.30904,48.3198053 214.33953,48.3411762 C218.182032,51.0344469 222.178436,52.3810823 226.328741,52.3810823 C228.254084,52.3810823 229.774069,51.9377534 230.888741,51.0510823 C232.003413,50.1644112 232.560741,49.0370891 232.560741,47.6690823 C232.560741,45.6424055 229.875434,43.8184237 224.504741,42.1970823 C224.099405,42.0450815 223.795409,41.9437492 223.592741,41.8930823 C215.182032,39.6130709 210.976741,35.8131089 210.976741,30.4930823 C210.976741,26.7437302 212.433393,23.7417602 215.346741,21.4870823 C218.260089,19.2324044 220.856741,18.1050823 226.708741,18.1050823 C230.134612,18.1050823 233.951179,19.15996 238.158442,21.2697155 C239.145816,21.7648483 239.544865,22.9666551 239.049739,23.9540329 C239.04865,23.9562044 239.047557,23.9583739 239.04646,23.9605414 L237.711279,26.5991134 C237.212556,27.5846822 236.009299,27.9793503 235.02373,27.4806282 C235.010766,27.4740684 234.997874,27.4673675 234.985057,27.4605267 C232.222687,25.9862304 229.235915,25.2490823 226.024741,25.2490823 C223.998064,25.2490823 222.351414,25.616412 221.084741,26.3510823 C219.818068,27.0857526 219.184741,28.1877416 219.184741,29.6570823 C219.184741,30.9744222 219.843401,31.9370793 221.160741,32.5450823 C222.072745,33.0010846 223.352066,33.4317469 224.998741,33.8370823 C226.645416,34.2424177 228.102068,34.6477469 229.368741,35.0530823 C230.635414,35.4584177 231.864068,35.9144131 233.054741,36.4210823 C234.245413,36.9277515 235.524734,37.6370777 236.892741,38.5490823 C239.628755,40.3730914 240.996741,43.2103964 240.996741,47.0610823 Z M256.919818,25.5530823 L256.919818,46.0730823 C256.919818,47.9984253 257.426479,49.5310766 258.439818,50.6710823 C259.453156,51.811088 260.871809,52.3810823 262.695818,52.3810823 C263.587049,52.3810823 264.76405,51.904794 266.226821,50.9522175 C267.152428,50.3494677 268.391409,50.611178 268.994172,51.5367765 C269.012341,51.5646774 269.029811,51.5930276 269.046565,51.6218007 L270.523791,54.1587759 C271.053237,55.0680312 270.787647,56.232019 269.916203,56.821633 C266.759863,58.9571964 263.960401,59.9343462 261.517818,59.7530823 C257.276253,59.4383161 254.804497,58.4990948 252.245818,55.9910823 C249.687138,53.4830698 248.407818,50.1011036 248.407818,45.8450823 L248.407818,25.5530823 L245.315818,25.5530823 C244.211248,25.5530823 243.315818,24.6576518 243.315818,23.5530823 L243.315818,20.7130823 C243.315818,19.6085128 244.211248,18.7130823 245.315818,18.7130823 L248.407818,18.7130823 L248.407818,18.7130823 L248.407818,8.0210823 C248.407818,6.9165128 249.303248,6.0210823 250.407818,6.0210823 L254.919818,6.0210823 C256.024387,6.0210823 256.919818,6.9165128 256.919818,8.0210823 L256.919818,18.7130823 L256.919818,18.7130823 L265.559818,18.7130823 C266.664387,18.7130823 267.559818,19.6085128 267.559818,20.7130823 L267.559818,23.5530823 C267.559818,24.6576518 266.664387,25.5530823 265.559818,25.5530823 L256.919818,25.5530823 L256.919818,25.5530823 Z" id="path-4"></path>
        <filter x="-8.3%" y="-32.1%" width="116.6%" height="170.7%" filterUnits="objectBoundingBox" id="filter-5">
            <feOffset dx="0" dy="2" in="SourceAlpha" result="shadowOffsetOuter1"></feOffset>
            <feGaussianBlur stdDeviation="7" in="shadowOffsetOuter1" result="shadowBlurOuter1"></feGaussianBlur>
            <feColorMatrix values="0 0 0 0 0   0 0 0 0 0   0 0 0 0 0  0 0 0 0.0817307692 0" type="matrix" in="shadowBlurOuter1"></feColorMatrix>
        </filter>
    </defs>
    <g id="Branding" stroke="none" stroke-width="1" fill="none" fill-rule="evenodd">
        <g id="Group-15" transform="translate(8.000000, 5.000000)">
            <g id="TiQuest-Copy-30" fill-rule="nonzero">
                <use fill="black" fill-opacity="1" filter="url(#filter-2)" xlink:href="#path-1"></use>
                <use fill="#FFFFFF" xlink:href="#path-1"></use>
            </g>
            <path d="M254.890718,1.84741111e-13 C257.378012,0.190311747 259.281744,0.965154175 260.601916,2.32452728 C261.922088,3.68390039 262.702212,5.4436159 262.942289,7.60367381 L262.942289,12.7215939 L265.945885,12.7215939 C268.400609,12.9275971 270.281962,13.815838 271.589945,15.3863167 C272.897928,16.9567953 273.55192,18.5707261 273.55192,20.2281091 L273.55192,23.2255199 C273.629004,25.32918 272.975012,27.1848597 271.589945,28.7925587 C270.204878,30.4002578 268.323525,31.3249939 265.945885,31.566767 L262.942289,31.566767 L262.942289,45.9824518 C264.351766,44.9016229 266.013031,44.4580727 267.926083,44.6518011 C269.839134,44.8455294 271.523807,45.6160529 272.980101,46.9633715 C273.452727,47.494247 274.057913,48.3436501 274.79566,49.5115809 C275.533408,50.6795116 276.025529,51.6327907 276.272024,52.371418 C276.659446,53.7065666 276.853157,54.8129397 276.853157,55.6905374 C276.853157,56.5681352 276.536199,57.5862446 275.902281,58.7448658 C275.164534,60.5562274 273.217733,62.2005301 270.061877,63.6777739 C266.906021,65.1550176 264.199633,65.8545495 261.942712,65.7763696 C256.183522,65.7763696 251.529279,63.9187019 247.979983,60.2033665 C246.700605,58.8641385 245.642873,57.4461296 244.806785,55.9493399 C243.708579,57.9424869 242.185652,59.7075759 240.240117,61.2443771 C234.331773,65.9114475 227.639468,66.4030415 220.83773,65.2836204 C215.080066,64.3360316 210.118883,62.3023915 205.954181,59.1827 C205.570165,58.7996581 205.228155,58.411676 204.928151,58.0187537 C204.574886,58.4984901 204.16011,58.9342007 203.685479,59.3262551 C200.874754,61.4016088 198.671897,62.7721578 197.076909,63.4379021 C192.502765,65.3471391 187.5422,65.9587452 185.003583,65.8394098 C173.271414,65.2879032 169.644014,60.4591486 166.673312,58.5101934 C165.887381,57.9945762 165.095875,57.1541843 164.33534,56.1159803 L164.335716,57.3195428 C164.335716,59.1798464 163.600109,60.9661989 162.128895,62.6786004 C160.657681,64.3910018 158.601302,65.1989069 155.959756,65.1023157 L151.946055,65.1023157 C150.767858,65.1023157 149.773322,64.9365611 148.962446,64.605052 C148.15157,64.2735429 147.347878,63.7889817 146.551369,63.1513684 C143.824988,64.4068389 141.761099,65.1682351 140.359704,65.4355568 C134.741999,66.5071562 129.322223,65.3981796 124.782352,62.6786004 C124.250112,62.3597657 123.739884,62.0233625 123.251669,61.6693905 C123.271388,63.4194123 122.772644,65.6006847 120.843386,67.3952989 C112.24778,73.8230546 108.873144,74.5576225 101.336142,74.0152915 C94.0878514,73.493735 88.8536019,68.2028476 86.5165474,65.1200213 C77.50467,64.4345411 69.6359165,59.9798327 64.4468891,53.3360256 L64.4462979,58.2662882 C64.0979304,60.3796977 63.1897337,62.028804 61.7217077,63.2136071 C60.2536818,64.3984103 58.6819287,65.1156856 57.0064485,65.3654332 L57.0064485,65.3654332 L52.0150037,65.3661683 C51.9582991,65.3722429 51.9001997,65.3752802 51.8407056,65.3752802 C50.9821847,65.3752802 48.9079855,65.7512211 46.5375915,64.3775284 C44.1671976,63.0038358 43.8958943,61.6315851 41.8174957,61.3455857 C39.739097,61.0595863 37.5432951,60.6944308 35.3890443,63.2898352 C33.8183935,65.1821284 32.6370408,65.5606528 30.0464135,66.1703955 C28.3193286,66.5768907 26.2636356,66.6816217 23.8793347,66.4845887 C21.7984566,66.1054189 20.0717158,65.4030655 18.6991123,64.3775284 C17.3265088,63.3519914 16.4371184,61.671548 16.0309412,59.3361982 L16.0309412,59.3361982 L16.0309412,21.5611771 L8.45774154,21.5611771 C2.11836262,21.5611771 5.57776048e-13,16.6304837 5.57776048e-13,14.1912326 L5.57776048e-13,14.1912326 L5.57776048e-13,8.36057553 C0.404204485,4.02892186 4.30055621,1.25198751 8.0208198,1.25198751 L8.0208198,1.25198751 L42.9237467,1.383224 C44.514396,1.53351044 45.8916769,2.05744103 47.0555893,2.95501575 C49.0497841,1.28810699 51.6195549,0.284431393 54.4237467,0.284431393 C60.7750213,0.284431393 65.9237467,5.43315677 65.9237467,11.7844314 C65.9237467,12.4575967 65.8659076,13.117253 65.7549279,13.7587017 C71.4801206,7.33493914 79.8500955,3.28443139 89.1737467,3.28443139 C100.347175,3.28443139 110.150977,9.10158189 115.675451,17.8494571 C116.071328,16.8114599 116.680468,15.8836036 117.501025,15.0650161 C118.924131,13.6453277 120.74522,12.8488814 122.964293,12.6756772 L127.942762,12.6756772 C130.82126,12.9437569 132.699394,13.8821354 133.577164,15.4908128 C134.893819,17.9038288 135.353034,19.2060421 138.359704,19.2060421 L139.876183,19.2060327 C141.943008,19.1973056 142.90761,19.1084889 143.965343,18.3874207 C144.814253,17.8087089 144.814253,17.2651215 145.431693,15.6842433 C146.119987,13.9219514 148.291441,12.919096 151.946055,12.6756772 L155.959756,12.6756772 C158.083797,12.6493109 159.962276,13.3117193 161.595193,14.6629024 C163.22811,16.0140855 164.141617,17.8964763 164.335716,20.3100747 L164.335049,21.9625419 C167.536563,18.0450247 173.807066,13.1552882 181.714886,12.3696718 C191.239299,11.4234523 199.901616,13.983157 205.739325,21.0870779 C206.114793,21.5439855 206.47067,22.0131895 206.806954,22.4946899 C207.511605,21.2005433 208.56636,19.7367898 209.96914,18.1050823 C213.379952,14.4478747 218.198894,12.473053 224.425969,12.1806173 C229.327286,11.9504417 234.337203,12.9666957 239.45572,15.2293792 C240.286169,14.3425485 241.284461,13.6894604 242.449692,13.2702477 L242.449692,8.28443139 C242.449692,5.98552439 243.095322,4.12493363 244.386581,2.70265912 C245.67784,1.28038461 247.532209,0.379498233 249.949685,1.84741111e-13 L254.890718,1.84741111e-13 Z" id="Combined-Shape-Copy" fill="#FFFFFF"></path>
            <g id="TiQuest-Copy-33" fill-rule="nonzero">
                <use fill="black" fill-opacity="1" filter="url(#filter-5)" xlink:href="#path-4"></use>
                <use fill="url(#linearGradient-3)" xlink:href="#path-4"></use>
            </g>
        </g>
    </g>
</svg>